<svg xmlns="http://www.w3.org/2000/svg" viewBox="0 0 3479138 3479138"><path fill="#9449d9" d="M1739569 0a1 1 0 000 3479138A1 1 0 001739569 0"/><path fill="#fff" transform="translate(490827 769405)" d="M470257 1757557c-142603-30926-269691-99975-376680-204657L0 1483890l8683-152030C27325 1005452 122880 619856 257586 327446c56268-122142 98069-158814 273319-239785C671778 22574 866647-18330 909546 8183c12614 7796-19208 24742-101923 54275-131043 46789-306819 136059-370135 187979-38392 31482-36389 31199 49831-7033C728373 136514 953288 90771 1237488 90834c266695 59 473743 43081 698672 145173 91709 41626 97531 42829 61328 12677-54719-68343-246903-166518-354858-204536-104316-36736-100720-34252-82079-56713 28931-34859 227330 5112 384407 77446 172451 79414 214775 116679 270906 238524 134707 292411 230261 678006 248903 1004414l8683 152030-95101 93051c-108930 106581-234197 173739-382769 205211-155645 32970-164293 30793-236284-59493-65729-82432-76098-107022-45125-107022 38322 0 209581-96936 274706-155489 37468-33687 66060-63315 63536-65838-2524-2524-49257 18672-103853 47102-373524 194508-791537 227071-1192112 92866-65797-22044-163324-62975-216725-90957-53401-27982-97094-46357-97094-40832 0 15015 92742 95794 151895 132303 28542 17616 84030 45090 123306 61052l71411 29024-69962 88718c-79197 100429-88200 102888-249022 68011m205843-611823c86199-36016 99757-79139 99814-317469l50-210000H509297v93333H642630V858264c0 131804-2874 149540-28357 175024-24206 24206-38846 27275-100000 20964l-71642-7394v51259c0 28531 7390 54241 16667 57984 35749 14425 173197 7852 216803-10367m599863-28725c148696-77470 184023-283972 70667-413078-53780-61252-141110-85667-306420-85667H909298v536142l156667-4805c126428-3878 166960-10169 210000-32592M1042630 724930h58028c118518 0 190024 93075 160990 209552-16347 65579-81747 110448-160990 110448h-58028m601070 0h197860l31958 106666h141294L1822630 618319H1662630l-192182 533278h141294Zm46649-123334c5234-16500 19378-59021 31432-94492l21916-64492 24516 77825c13483 42804 27385 85325 30893 94492 4541 11866-11574 16667-55947 16667-58564 0-61751-1810-52809-30000"/></svg>