<svg xmlns="http://www.w3.org/2000/svg" viewBox="0 0 476 476"><path fill="#f9e547" d="M232 1 474 233 243 475 1 243"/><path fill="#418fde" d="M275 5 469 279 195 472 2 198"/><path fill="#97d700" d="M314 15 459 318 156 462 12 159"/><path fill="#ff4f58" d="M358 35 438 361 113 441 33 115"/><path fill="#3c3c3c" d="M67 75H402V411H67"/><path fill="#444" d="M74 84H394V402H74"/><path fill="#383838" d="M67 75h7v9H67m327-9h8v9h-8m0 318h8v9h-8M67 402h7v9h-7"/><path fill="#01010158" d="M245.7 14.1l7 6.7L176 75h-5.5M284.4 18.3l5.7 8.1L187.6 75h-4m140-39.9 3.6 7.5L196 75h0m170.1-7 1.7 7H196m263.5 173.2-7.07 7.4L402 184.37V177.5m53.8 110.8-8.24 5.8L402 198.9v-6.1m36.8 134.8-8.06 3.83L402 214.3v-5.8m6.7 159.7-6.7 1.66V214.3M227.9 460.5l-7.03-6.72L281.6 411h7m-102.9 47.8-5.76-8.18L263.31 411h7.29m-124.2 30.8-3.84-8.08L234.88 411h9.72m-137.3 6.8-1.66-6.8H234.88M13.21 230.21l6.6-6.92L67 290.28v5.76M15.34 188.57l8.02-5.67L67 274.73v4.43M32.3 149.32l8.17-3.89L67 253.55V259.3M59.25 108.54 67 106.63V253.55"/><path fill="#2c2c2c" d="M343.9 137.6c3.3 1 7.7 3.4 7.7 6.4L318.8 338.7c-1.5 3-4.6 2.7-7.1 1.7l-6.3-3.2m-53-21.6 6.5 2.7-38.4 35.6c-1.5 1.4-4.7 1.5-7.1-.3m73.9-154-23.3 28.6-77.9 58.7L181.4 285.2"/><path fill="#969696" d="M217 301.1l35.6 14.5-24.3 23.3"/><path fill="#ababab" d="M311.2 336.5c-1.6 1.8-3.6 2-5.7.9l-88.6-36.2c6.7 11.1 9.6 25.6 11.2 37.2l-15.7 14.5c-1.2-.2-1.9-.7-1.7-2.2V301.3c.4-2.2 2.4-3.5 5.5-3.2m74-100.9-109.7 88.8-54.2-22.1c-3.3-2.2-3.4-8.2 1.4-10.6"/><path fill="#dfdfdf" d="M343.9 137.6 310.9 336.6 304.5 333.8"/><path fill="#fff" d="M335 133.2c5.1-1.3 7.2.1 8.9 4.4l-39.4 196.2-88.3-35.7c-3.1-.3-5.1 1-5.5 3.2v49.4c-.2 1.5.5 2 1.7 2.2-1.3.3-4.5.5-5.1-1.3v-55l82.9-99.4-110.8 85.6-50.4-20.8c-1.5-.3-6-4.6-1.3-8.7"/></svg>