<svg xmlns="http://www.w3.org/2000/svg" viewBox="0 0 110.95 112.39"><defs><linearGradient id="blue" gradientUnits="userSpaceOnUse" gradientTransform="matrix(0.56,0,0,0.57,-15,-11.7)" x1="26.65" y1="20.6" x2="135.67" y2="114.4"><stop stop-color="#5a9fd4"/><stop stop-color="#306998" offset="1"/></linearGradient><linearGradient id="yellow" gradientUnits="userSpaceOnUse" gradientTransform="matrix(0.56,0,0,0.57,-15,-11.7)" x1="95.46" y1="136.45" x2="56.53" y2="81.37"><stop stop-color="#ffe873"/><stop stop-color="#ffd43b" offset="1"/></linearGradient></defs><path id="snake" d="M54.92 0c-4.58.02-8.96.41-12.81 1.09C30.76 3.1 28.7 7.29 28.7 15.03V25.25H55.51v3.41H28.7 18.64c-7.79 0-14.62 4.68-16.75 13.59C-.57 52.46-.68 58.84 1.89 69.5c1.9 7.94 6.46 13.59 14.25 13.59h9.22V70.84c0-8.85 7.65-16.65 16.75-16.65H68.89c7.45 0 13.4-6.14 13.4-13.63V15.03c0-7.26-6.13-12.72-13.4-13.94C64.28.33 59.5-.02 54.92 0M40.42 8.22c2.77 0 5.03 2.3 5.03 5.12 0 2.82-2.26 5.1-5.03 5.1-2.78 0-5.03-2.28-5.03-5.1 0-2.82 2.25-5.12 5.03-5.12"/><use href="#snake" fill="url(#blue)"/><use href="#snake" fill="url(#yellow)" transform="rotate(180 55.5 55.9)"/></svg>