<svg xmlns="http://www.w3.org/2000/svg" viewBox="0 0 931940 1120000"><path fill="#ff3e00" d="M872536 148189c-104000-148851-309400-192971-457914-98348L153795 216078A299234 299234 90 0018609 416506 315136 315136 90 0049685 618824 300061 300061 90 004923 730653 318886 318886 90 0059396 971810c104022 148865 309423 192966 457914 98348L778137 903921A299177 299177 90 00913323 703493 315263 315263 90 00882270 501170a300000 300000 90 0044743-111824A318800 318800 90 00872540 148189M0 786060"/><path fill="#fff" d="M389141 985815A207182 207182 90 01166770 903389 191739 191739 90 01134004 758364a181886 181886 90 016233-24357l4912-14978 13363 9815a336443 336443 90 00102030 50978l9694 2941-893 9675a58474 58474 90 0010520 38781 62389 62389 90 0066952 24850 57449 57449 90 0016021-7041L623670 682810a54306 54306 90 0024506-36310 57948 57948 90 00-9875-43712 62436 62436 90 00-66978-24864 57427 57427 90 00-16000 7036l-99532 63449a190329 190329 90 01-52965 23259A207181 207181 90 01180458 589241 191725 191725 90 01147692 444217a179885 179885 90 0181300-120513L489803 157472a190038 190038 90 0153000-23287A207182 207182 90 01765170 216611a191739 191739 90 0132766 145025 184000 184000 90 01-6233 24357l-4912 14978-13356-9800a336175 336175 90 00-102037-51000l-9694-2942 893-9675a58588 58588 90 00-10520-38780 62389 62389 90 00-66952-24850 57449 57449 90 00-16021 7041L308270 437190a54218 54218 90 00-24487 36300 57862 57862 90 009856 43717 62437 62437 90 0066978 24864 57652 57652 90 0016020-7041l99519-63425a189780 189780 90 0152959-23278 207181 207181 90 01222368 82427 191725 191725 90 0132766 145024 179977 179977 90 01-81300 120532L442137 962528a190038 190038 90 01-53000 23287"/></svg>