<svg xmlns="http://www.w3.org/2000/svg" viewBox="0 0 28.842 28.882" fill="#231f20"><path d="M16.436 10.707a1 1 0 0 0 5.453 0 1 1 0 0 0-5.453 0m-.909 0a1 1 0 0 1 7.259 0 1 1 0 0 1-7.259 0M9.051 21.892l-1.777-.735a3.07 3.07 0 0 0 4.53 1.185 3.063 3.063 0 0 0 1.246-3.115 3.072 3.072 0 0 0-2.351-2.394 3.07 3.07 0 0 0-1.746.128l1.833.76a2.256 2.256 0 0 1 1.164 2.93 2.258 2.258 0 0 1-2.899 1.238ZM4.599 3.808A14.32 14.32 0 0 1 14.397 0a14.43 14.43 0 0 1 7.605 2.163 14.432 14.432 0 0 1 6.777 13.617 14.439 14.439 0 0 1-17.05 12.852A14.435 14.435 0 0 1 .504 18.367l5.535 2.29a4.09 4.09 0 0 0 7.034 1.931 4.086 4.086 0 0 0 1.061-2.739v-.193l4.908-3.502h.114a5.447 5.447 0 1 0-5.447-5.447v.057l-3.442 4.987h-.228c-.821 0-1.623.248-2.299.713L0 13.262a14.444 14.444 0 0 1 4.599-9.454"/></svg>